<svg width="15" height="50" viewBox="0 0 15 50" fill="none" xmlns="http://www.w3.org/2000/svg">
<path d="M7.25926 49.6006C11.2684 49.6006 14.5185 46.2384 14.5185 42.091C14.5185 37.9436 11.2684 34.5814 7.25926 34.5814C3.25008 34.5814 0 37.9436 0 42.091C0 46.2384 3.25008 49.6006 7.25926 49.6006Z" fill="white"/>
<path d="M7.25926 49.6006C11.2684 49.6006 14.5185 46.2384 14.5185 42.091C14.5185 37.9436 11.2684 34.5814 7.25926 34.5814C3.25008 34.5814 0 37.9436 0 42.091C0 46.2384 3.25008 49.6006 7.25926 49.6006Z" fill="#009E83"/>
<path d="M7.25926 36.8446C10.8966 36.8446 13.9088 39.6121 14.4363 43.2226C14.4903 42.8535 14.5185 42.4756 14.5185 42.091C14.5185 37.9435 11.2684 34.5814 7.25926 34.5814C3.25013 34.5814 0 37.9436 0 42.091C0 42.4757 0.0282064 42.8535 0.0821799 43.2226C0.609727 39.6121 3.62191 36.8446 7.25926 36.8446Z" fill="#007F67"/>
<path d="M7.25926 32.4831C11.2684 32.4831 14.5185 29.121 14.5185 24.9736C14.5185 20.8261 11.2684 17.464 7.25926 17.464C3.25008 17.464 0 20.8261 0 24.9736C0 29.121 3.25008 32.4831 7.25926 32.4831Z" fill="white"/>
<path d="M7.25926 15.0192C11.2684 15.0192 14.5185 11.657 14.5185 7.50958C14.5185 3.36215 11.2684 0 7.25926 0C3.25008 0 0 3.36215 0 7.50958C0 11.657 3.25008 15.0192 7.25926 15.0192Z" fill="white"/>
</svg>
