<svg width="26" height="22" viewBox="0 0 26 22" fill="none" xmlns="http://www.w3.org/2000/svg">
<path d="M10.3993 13.4512H15.5991V6.11417H19.499L12.9992 0L6.49943 6.11417H10.3993V13.4512ZM25.1382 15.3246C24.8652 15.0506 23.044 13.2176 22.524 12.7395C22.1596 12.4109 21.6742 12.2277 21.1694 12.2283H18.8854L22.8685 15.8895H18.2614C18.1988 15.8884 18.137 15.9029 18.0822 15.9314C18.0274 15.96 17.9816 16.0016 17.9494 16.0521L16.8887 18.3425H9.10974L8.04898 16.0521C8.01656 16.0018 7.97072 15.9603 7.91599 15.9318C7.86126 15.9032 7.79955 15.8887 7.73699 15.8895H3.12995L7.11171 12.2283H4.82899C4.31291 12.2283 3.82022 12.4228 3.47444 12.7395C2.95445 13.2188 1.13322 15.0519 0.860228 15.3246C0.22455 15.9616 -0.125138 16.4691 0.0412564 17.0964L0.770531 20.8554C0.936925 21.484 1.6688 22 2.39807 22H23.6029C24.3322 22 25.0641 21.484 25.2305 20.8554L25.9597 17.0964C26.1235 16.4691 25.7752 15.9616 25.1382 15.3246Z" fill="black" fill-opacity="0.6"/>
</svg>
