<svg width="23" height="21" viewBox="0 0 23 21" fill="none" xmlns="http://www.w3.org/2000/svg">
<path fill-rule="evenodd" clip-rule="evenodd" d="M19.3684 0H3.63158C2.66842 0 1.74472 0.39044 1.06367 1.08543C0.382612 1.78042 0 2.72302 0 3.70588V17.2941C0 18.277 0.382612 19.2196 1.06367 19.9146C1.74472 20.6096 2.66842 21 3.63158 21H19.3684C20.3316 21 21.2553 20.6096 21.9363 19.9146C22.6174 19.2196 23 18.277 23 17.2941V3.70588C23 2.72302 22.6174 1.78042 21.9363 1.08543C21.2553 0.39044 20.3316 0 19.3684 0ZM10.9195 4H19V11.6H17.1313V6.8L10.6667 14L9 12.8L15.5661 5.79401H10.9195V4Z" fill="black" fill-opacity="0.6"/>
</svg>
