<svg width="27" height="27" viewBox="0 0 27 27" fill="none" xmlns="http://www.w3.org/2000/svg">
<path d="M21.5882 5.41176V11.2941H20.1176V7.92206L10.2397 17.8015L9.19853 16.7603L19.0779 6.88235L15.7059 6.88235V5.41176L21.5882 5.41176ZM1 26V8.35294L14.2353 8.35294L12.7647 9.82353L2.47059 9.82353V24.5294H17.1765V14.2353L18.6471 12.7647V26H1ZM8.35294 1L26 1V18.6471H21.5882V17.1765H24.5294V2.47059L9.82353 2.47059V5.41176H8.35294V1Z" fill="white" fill-opacity="0.9"/>
<path d="M21.8382 5.41176V5.16176H21.5882L15.7059 5.16176H15.4559V5.41176V6.88235V7.13235H15.7059H18.4743L9.02177 16.5835L8.84496 16.7603L9.02175 16.9371L10.0629 17.9782L10.2397 18.155L10.4165 17.9782L19.8676 8.52568V11.2941V11.5441H20.1176H21.5882H21.8382V11.2941V5.41176ZM0.75 26V26.25H1H18.6471H18.8971V26V12.7647V12.1612L18.4703 12.5879L16.9997 14.0585L16.9265 14.1317V14.2353V24.2794H2.72059V10.0735L12.7647 10.0735H12.8683L12.9415 10.0003L14.4121 8.52972L14.8388 8.10294H14.2353L1 8.10294H0.75V8.35294V26ZM8.35294 0.75H8.10294V1V5.41176V5.66176H8.35294H9.82353H10.0735V5.41176V2.72059L24.2794 2.72059V16.9265H21.5882H21.3382V17.1765V18.6471V18.8971H21.5882H26H26.25V18.6471V1V0.75H26L8.35294 0.75Z" stroke="white" stroke-opacity="0.9" stroke-width="0.5"/>
</svg>
