<svg width="15" height="50" viewBox="0 0 15 50" fill="none" xmlns="http://www.w3.org/2000/svg">
<path d="M7.25926 49.6006C11.2684 49.6006 14.5185 46.2384 14.5185 42.091C14.5185 37.9436 11.2684 34.5814 7.25926 34.5814C3.25008 34.5814 0 37.9436 0 42.091C0 46.2384 3.25008 49.6006 7.25926 49.6006Z" fill="white"/>
<path d="M7.25926 32.4831C11.2684 32.4831 14.5185 29.121 14.5185 24.9736C14.5185 20.8261 11.2684 17.464 7.25926 17.464C3.25008 17.464 0 20.8261 0 24.9736C0 29.121 3.25008 32.4831 7.25926 32.4831Z" fill="white"/>
<path d="M7.25926 15.0192C11.2684 15.0192 14.5185 11.657 14.5185 7.50958C14.5185 3.36215 11.2684 0 7.25926 0C3.25008 0 0 3.36215 0 7.50958C0 11.657 3.25008 15.0192 7.25926 15.0192Z" fill="white"/>
<path d="M7.25926 15.0192C11.2684 15.0192 14.5185 11.657 14.5185 7.50958C14.5185 3.36215 11.2684 0 7.25926 0C3.25008 0 0 3.36215 0 7.50958C0 11.657 3.25008 15.0192 7.25926 15.0192Z" fill="#FF473E"/>
<path d="M7.25926 2.26316C10.8966 2.26316 13.9088 5.03064 14.4363 8.64116C14.4903 8.27205 14.5185 7.89417 14.5185 7.50958C14.5185 3.36208 11.2684 0 7.25926 0C3.25013 0 0 3.3622 0 7.50958C0 7.89429 0.0282064 8.27205 0.0821799 8.64116C0.609727 5.03064 3.62191 2.26316 7.25926 2.26316Z" fill="#D32A2A"/>
</svg>
