<svg width="39" height="39" viewBox="0 0 39 39" fill="none" xmlns="http://www.w3.org/2000/svg">
<path d="M19.6141 38.88C8.89813 38.88 0.234131 30.216 0.234131 19.5C0.234131 8.784 8.89813 0.119995 19.6141 0.119995C30.3301 0.119995 38.9941 8.784 38.9941 19.5C38.9941 30.216 30.2161 38.88 19.6141 38.88ZM19.6141 2.4C10.1521 2.4 2.51413 10.038 2.51413 19.5C2.51413 28.962 10.1521 36.6 19.6141 36.6C29.0761 36.6 36.7141 28.962 36.7141 19.5C36.7141 10.038 28.9621 2.4 19.6141 2.4Z" fill="#757272"/>
<path d="M8.44201 33.522L6.39001 32.61C6.96001 31.242 8.78401 30.444 10.722 29.532C12.66 28.62 15.054 27.594 15.054 26.34V24.63C14.37 24.06 13.23 22.806 13.002 20.982C12.432 20.412 11.52 19.386 11.52 18.018C11.52 17.22 11.862 16.536 12.09 16.08C11.862 15.168 11.634 13.458 11.634 12.09C11.634 7.64399 14.712 4.67999 19.614 4.67999C20.982 4.67999 22.692 5.02199 23.604 6.04799C25.77 6.50399 27.594 9.01199 27.594 12.09C27.594 14.028 27.252 15.624 27.024 16.422C27.252 16.764 27.48 17.334 27.48 18.018C27.48 19.5 26.682 20.526 25.998 20.982C25.77 22.806 24.744 23.946 24.06 24.516V26.34C24.06 27.366 26.112 28.164 27.936 28.848C30.102 29.646 32.382 30.558 33.18 32.382L31.014 33.18C30.672 32.268 28.848 31.584 27.138 31.014C24.63 30.102 21.78 29.076 21.78 26.454V23.49L22.35 23.148C22.35 23.148 23.718 22.236 23.718 20.412V19.614L24.402 19.272C24.516 19.272 25.086 18.93 25.086 18.018C25.086 17.79 24.858 17.448 24.744 17.334L24.288 16.878L24.516 16.308C24.516 16.308 25.086 14.484 25.086 12.204C25.086 10.038 23.832 8.44199 22.806 8.44199H22.122L21.78 7.87199C21.78 7.41599 20.982 6.95999 19.614 6.95999C16.08 6.95999 13.914 8.89799 13.914 12.09C13.914 13.572 14.484 16.08 14.484 16.08L14.598 16.65L14.142 17.22C14.028 17.22 13.8 17.562 13.8 18.018C13.8 18.588 14.484 19.272 14.826 19.5L15.282 19.842V20.412C15.282 22.122 16.764 23.034 16.764 23.148L17.334 23.49V26.454C17.334 29.19 14.37 30.558 11.634 31.698C10.38 32.154 8.67001 32.952 8.44201 33.522Z" fill="#757272"/>
</svg>
