<svg width="15" height="50" viewBox="0 0 15 50" fill="none" xmlns="http://www.w3.org/2000/svg">
<path d="M7.25926 49.6006C11.2684 49.6006 14.5185 46.2384 14.5185 42.091C14.5185 37.9436 11.2684 34.5814 7.25926 34.5814C3.25008 34.5814 0 37.9436 0 42.091C0 46.2384 3.25008 49.6006 7.25926 49.6006Z" fill="white"/>
<path d="M7.25926 32.4831C11.2684 32.4831 14.5185 29.121 14.5185 24.9736C14.5185 20.8261 11.2684 17.464 7.25926 17.464C3.25008 17.464 0 20.8261 0 24.9736C0 29.121 3.25008 32.4831 7.25926 32.4831Z" fill="white"/>
<path d="M7.25926 32.4831C11.2684 32.4831 14.5185 29.121 14.5185 24.9736C14.5185 20.8261 11.2684 17.464 7.25926 17.464C3.25008 17.464 0 20.8261 0 24.9736C0 29.121 3.25008 32.4831 7.25926 32.4831Z" fill="#FFB636"/>
<path d="M7.25926 19.7273C10.8966 19.7273 13.9088 22.4947 14.4363 26.1053C14.4903 25.7362 14.5185 25.3583 14.5185 24.9737C14.5185 20.8262 11.2684 17.4641 7.25926 17.4641C3.25013 17.4641 0 20.8263 0 24.9737C0 25.3584 0.0282064 25.7362 0.0821799 26.1053C0.609727 22.4947 3.62191 19.7273 7.25926 19.7273Z" fill="#E2A042"/>
<path d="M7.25926 15.0192C11.2684 15.0192 14.5185 11.657 14.5185 7.50958C14.5185 3.36215 11.2684 0 7.25926 0C3.25008 0 0 3.36215 0 7.50958C0 11.657 3.25008 15.0192 7.25926 15.0192Z" fill="white"/>
</svg>
