<svg width="21" height="21" viewBox="0 0 21 21" fill="none" xmlns="http://www.w3.org/2000/svg">
<path d="M0.389648 20.6104C0.649414 20.8701 0.960449 21 1.32275 21C1.68506 21 1.99609 20.8701 2.25586 20.6104L6.31641 16.5498C7.95703 17.7666 9.78906 18.375 11.8125 18.375C13.0566 18.375 14.2461 18.1323 15.3809 17.647C16.5156 17.1616 17.4932 16.5088 18.3135 15.6885C19.1338 14.8682 19.7866 13.8906 20.272 12.7559C20.7573 11.6211 21 10.4316 21 9.1875C21 7.94336 20.7573 6.75391 20.272 5.61914C19.7866 4.48438 19.1338 3.50684 18.3135 2.68652C17.4932 1.86621 16.5156 1.21338 15.3809 0.728027C14.2461 0.242676 13.0566 0 11.8125 0C10.5684 0 9.37891 0.242676 8.24414 0.728027C7.10938 1.21338 6.13184 1.86621 5.31152 2.68652C4.49121 3.50684 3.83838 4.48438 3.35303 5.61914C2.86768 6.75391 2.625 7.94336 2.625 9.1875C2.625 11.2109 3.2334 13.043 4.4502 14.6836L0.389648 18.7441C0.129883 19.0039 0 19.3149 0 19.6772C0 20.0396 0.129883 20.3506 0.389648 20.6104ZM11.8125 2.625C13.002 2.625 14.0991 2.91895 15.104 3.50684C16.1089 4.09473 16.9053 4.89111 17.4932 5.896C18.0811 6.90088 18.375 7.99805 18.375 9.1875C18.375 10.8418 17.8213 12.291 16.7139 13.5352C15.9482 13.084 14.9707 12.7695 13.7812 12.5918V11.9561C15.0938 11.1631 15.75 9.52246 15.75 7.03418C15.75 6.02246 15.3809 5.25342 14.6426 4.72705C13.9043 4.20068 12.9575 3.9375 11.8022 3.9375C10.647 3.9375 9.70361 4.20068 8.97217 4.72705C8.24072 5.25342 7.875 6.02246 7.875 7.03418C7.875 9.63184 8.53125 11.293 9.84375 12.0176V12.5918C8.6543 12.7559 7.66992 13.0703 6.89062 13.5352C5.79688 12.291 5.25 10.8418 5.25 9.1875C5.25 7.99805 5.54395 6.90088 6.13184 5.896C6.71973 4.89111 7.51611 4.09473 8.521 3.50684C9.52588 2.91895 10.623 2.625 11.8125 2.625Z" fill="black" fill-opacity="0.6"/>
</svg>
