<svg width="19" height="19" viewBox="0 0 19 19" fill="none" xmlns="http://www.w3.org/2000/svg">
<path d="M2.74954 17.8748L6.46531 13.5053C6.87228 13.0534 7.0579 12.5704 7.0406 12.1807C8.40041 13.3403 10.1563 13.9287 11.9402 13.8225C13.7242 13.7163 15.3979 12.9238 16.6105 11.611C17.8231 10.2982 18.4806 8.56705 18.4452 6.78027C18.4098 4.99348 17.6842 3.28974 16.4205 2.02605C15.1568 0.762353 13.4531 0.0367781 11.6663 0.00135983C9.87948 -0.0340585 8.14833 0.623428 6.83555 1.83605C5.52277 3.04867 4.73025 4.72232 4.62405 6.5063C4.51785 8.29027 5.10621 10.0461 6.26586 11.4059C5.87618 11.3875 5.39312 11.5743 4.94119 11.9812L0.571723 15.697C-0.134999 16.3334 -0.194949 17.3721 0.439141 18.0062C1.07323 18.6403 2.11314 18.5804 2.74838 17.8737L2.74954 17.8748ZM6.9184 6.91772C6.9184 5.69465 7.40426 4.52168 8.26909 3.65685C9.13393 2.79201 10.3069 2.30615 11.53 2.30615C12.753 2.30615 13.926 2.79201 14.7908 3.65685C15.6557 4.52168 16.1415 5.69466 16.1415 6.91772C16.1415 8.14078 15.6557 9.31376 14.7908 10.1786C13.926 11.0434 12.753 11.5293 11.53 11.5293C10.3069 11.5293 9.13393 11.0434 8.26909 10.1786C7.40426 9.31376 6.9184 8.14078 6.9184 6.91772Z" fill="black" fill-opacity="0.6"/>
</svg>
