<svg width="37" height="32" viewBox="0 0 37 32" fill="none" xmlns="http://www.w3.org/2000/svg">
<path d="M30.1842 21.6C28.8211 21.6 27.8474 20.4 27.8474 19.2C27.8474 17.8 29.0158 16.8 30.1842 16.8C31.3526 16.8 32.5211 18 32.5211 19.2C32.7158 20.4 31.5474 21.6 30.1842 21.6ZM30.1842 12C26.4842 12 23.3684 15.2 23.3684 19C23.3684 24.2 30.1842 32 30.1842 32C30.1842 32 37 24.2 37 19C37 15.2 33.8842 12 30.1842 12ZM23.1737 10.6C22.5895 8 20.2526 6 17.5263 6C14.2158 6 11.6842 8.6 11.6842 12C11.6842 15.4 14.2158 18 17.5263 18C18.3053 18 18.8895 17.8 19.4737 17.6C19.8632 14.8 21.2263 12.4 23.1737 10.6ZM19.4737 20H7.78947C7.78947 17.8 6.03684 16 3.89474 16V8C6.03684 8 7.78947 6.2 7.78947 4H27.2632C27.2632 6.2 29.0158 8 31.1579 8C31.1579 8 33.1053 8 35.0526 9.2V0H0V24H20.4474C20.0579 22.6 19.6684 21.4 19.4737 20Z" fill="black" fill-opacity="0.6"/>
</svg>
