<svg width="45" height="23" viewBox="0 0 45 23" fill="none" xmlns="http://www.w3.org/2000/svg">
<path d="M3.39568 6.96379C3.30755 6.96379 3.28693 6.90479 3.33005 6.81245L3.7913 6.00449C3.83442 5.91471 3.94317 5.85572 4.0313 5.85572H11.8538C11.94 5.85572 11.9625 5.94549 11.9194 6.03526L11.5463 6.81245C11.5031 6.90479 11.3925 6.992 11.3269 6.992L3.39568 6.96379ZM0.0881944 9.72113C6.99346e-05 9.72113 -0.0224299 9.66214 0.0225698 9.57237L0.481942 8.76183C0.525067 8.67206 0.635691 8.61306 0.723816 8.61306H10.7138C10.8019 8.61306 10.845 8.70284 10.8225 8.79261L10.6481 9.51081C10.6256 9.63136 10.5394 9.69035 10.4513 9.69035L0.0881944 9.72113ZM5.39066 12.4785C5.30254 12.4785 5.28004 12.3887 5.32504 12.2989L5.63066 11.55C5.67379 11.4602 5.76191 11.3704 5.85004 11.3704H10.2319C10.32 11.3704 10.3631 11.4602 10.3631 11.5807L10.32 12.2989C10.32 12.4195 10.2319 12.5093 10.1663 12.5093L5.39066 12.4785ZM28.1324 6.42514C26.7524 6.90479 25.8093 7.26389 24.4518 7.74354C24.1218 7.86153 24.1012 7.89231 23.8143 7.44344C23.4881 6.93301 23.2462 6.60469 22.7868 6.30459C21.4049 5.37607 20.0681 5.64539 18.8212 6.75346C17.3306 8.07186 16.5637 10.0212 16.5862 12.4477C16.6068 14.8459 17.8125 16.8235 19.5431 17.1544C21.0337 17.4237 22.2806 16.7056 23.2687 15.1768C23.4656 14.8459 23.6399 14.4869 23.8593 14.0662H19.6312C19.1718 14.0662 19.0612 13.6763 19.215 13.1685C19.5 12.2399 20.025 10.6804 20.3325 9.90068C20.3794 9.75622 20.4563 9.63379 20.5536 9.54853C20.6509 9.46327 20.7644 9.41894 20.8799 9.42103H28.8543C28.8112 10.2316 28.8112 11.0395 28.723 11.8501C28.4961 13.9839 27.8781 16.0045 26.9268 17.7239C25.3499 20.571 23.2893 22.3408 20.6831 22.8179C18.5362 23.2078 16.5412 22.6383 14.79 20.8429C13.1681 19.1628 12.2475 16.9441 12.0075 14.1868C11.7225 10.919 12.4237 7.98208 13.8694 5.40428C15.4256 2.61872 17.4843 0.84889 20.0043 0.220472C22.0631 -0.289958 24.0356 0.040922 25.8093 1.68764C26.9718 2.73927 27.8024 4.17566 28.3518 5.91471C28.483 6.18403 28.3949 6.33537 28.1324 6.42514ZM35.3849 23C33.3899 22.9384 31.5711 22.1587 30.0374 20.3606C28.7615 18.8896 27.9204 16.8337 27.6712 14.5766C27.2774 11.1909 27.9562 8.19241 29.4468 5.52484C31.0461 2.64694 32.9736 1.14899 35.5817 0.520572C37.8167 -0.018072 39.9205 0.279464 41.8255 2.0493C43.5561 3.66523 44.6304 5.85572 44.9154 8.73105C45.2867 12.7786 44.4336 16.0746 42.3955 18.8935C40.9498 20.9019 39.1742 22.1587 37.1361 22.7281C36.5455 22.8794 35.9549 22.9077 35.3849 23ZM40.5973 10.8908C40.5767 10.5009 40.5767 10.2008 40.5336 9.90068C40.1398 6.93301 38.1449 5.25551 36.0636 5.91471C34.0255 6.54313 32.7111 8.31296 32.2293 11.1293C31.8355 13.4686 32.668 15.836 34.2449 16.7953C35.4505 17.5135 36.6542 17.4237 37.8167 16.6158C39.5473 15.3846 40.4886 13.4686 40.5992 10.8908H40.5973Z" fill="black" fill-opacity="0.6"/>
</svg>
