<svg width="26" height="33" viewBox="0 0 26 33" fill="none" xmlns="http://www.w3.org/2000/svg">
<path d="M18.7962 8.92887H23.8057C25.0064 8.92887 26 9.98745 26 11.3682V19.7448H14.0764V9.98745C13.6624 9.84937 13.2898 9.66527 13.0414 9.38912C13 9.38912 13 9.3431 12.9586 9.3431C12.9586 9.3431 12.9586 9.38912 12.9172 9.38912C12.6274 9.66527 12.2962 9.84937 11.9236 9.98745V19.7448H0V11.3682C0 9.98745 0.952229 8.92887 2.15287 8.92887H7.20382C6.6242 8.60669 6.08599 8.14644 5.63057 7.73222C3.64331 5.61506 3.2707 2.66946 4.84395 1.01255C5.50637 0.368201 6.3758 0 7.32803 0C8.69427 0 10.1019 0.598326 11.3025 1.841C11.965 2.53138 12.586 3.49791 12.9586 4.41841C13.3726 3.49791 13.9936 2.53138 14.6561 1.841C15.8153 0.598326 17.3057 0 18.6306 0C19.6242 0 20.4936 0.368201 21.1147 1.01255C22.6879 2.66946 22.3153 5.61506 20.2866 7.73222C19.8726 8.14644 19.3344 8.60669 18.7962 8.92887ZM11.4268 7.59414C11.5924 7.17992 11.1783 5.06276 9.8121 3.63598C9.10828 2.89958 8.15605 2.48536 7.32803 2.48536C7.07962 2.48536 6.66561 2.53138 6.3758 2.80753C6.29299 2.89958 6.04459 3.08368 6.04459 3.58996C6.04459 4.18828 6.3758 5.10879 7.16242 5.89121C8.15605 6.94979 9.7293 7.68619 10.8885 7.68619C11.2611 7.68619 11.4268 7.59414 11.4268 7.59414ZM14.5732 7.59414C14.5732 7.59414 14.7803 7.68619 15.1115 7.68619C16.2707 7.68619 17.8439 6.94979 18.8376 5.89121C19.6242 5.10879 19.8726 4.18828 19.8726 3.58996C19.8726 3.08368 19.6656 2.89958 19.6242 2.80753C19.3344 2.53138 18.879 2.48536 18.6306 2.48536C17.8439 2.48536 16.8503 2.89958 16.1465 3.63598C14.8217 5.06276 14.3662 7.13389 14.5732 7.64017V7.59414ZM11.9236 33H2.15287C0.952229 33 0 31.9414 0 30.6067V22.1841H11.9236V33ZM23.8057 33H14.0764V22.1841H26V30.6067C26 31.9414 25.0064 33 23.8057 33Z" fill="black" fill-opacity="0.6"/>
</svg>
