<svg width="30" height="31" viewBox="0 0 30 31" fill="none" xmlns="http://www.w3.org/2000/svg">
<path d="M28.4278 0.76536L29.2506 1.6064C30.3843 2.76675 30.2128 4.82373 28.8643 6.20075L11.8969 23.5447L6.39956 25.6002C5.70926 25.8597 5.03709 25.5233 4.90043 24.8519C4.85424 24.6083 4.87599 24.3564 4.96318 24.1249L7.01316 18.4571L23.9332 1.16022C25.2817 -0.216803 27.294 -0.393563 28.4278 0.766785V0.76536ZM11.1564 2.4902C11.3395 2.4902 11.5208 2.52707 11.69 2.59871C11.8592 2.67035 12.0129 2.77535 12.1424 2.90772C12.2719 3.04009 12.3747 3.19723 12.4447 3.37018C12.5148 3.54313 12.5509 3.72849 12.5509 3.91569C12.5509 4.10289 12.5148 4.28826 12.4447 4.4612C12.3747 4.63415 12.2719 4.7913 12.1424 4.92367C12.0129 5.05604 11.8592 5.16104 11.69 5.23267C11.5208 5.30431 11.3395 5.34118 11.1564 5.34118H5.57817C4.83846 5.34118 4.12905 5.64155 3.60599 6.17622C3.08294 6.71088 2.78909 7.43604 2.78909 8.19216V25.298C2.78909 26.0542 3.08294 26.7793 3.60599 27.314C4.12905 27.8486 4.83846 28.149 5.57817 28.149H22.3127C23.0524 28.149 23.7618 27.8486 24.2849 27.314C24.8079 26.7793 25.1018 26.0542 25.1018 25.298V19.5961C25.1018 19.218 25.2487 18.8554 25.5102 18.5881C25.7718 18.3208 26.1265 18.1706 26.4963 18.1706C26.8662 18.1706 27.2209 18.3208 27.4824 18.5881C27.744 18.8554 27.8909 19.218 27.8909 19.5961V25.298C27.8909 26.8103 27.3032 28.2606 26.2571 29.3299C25.211 30.3993 23.7921 31 22.3127 31H5.57817C4.09875 31 2.67992 30.3993 1.63381 29.3299C0.587699 28.2606 0 26.8103 0 25.298V8.19216C0 6.67991 0.587699 5.22959 1.63381 4.16027C2.67992 3.09094 4.09875 2.4902 5.57817 2.4902H11.1564Z" fill="black" fill-opacity="0.6"/>
</svg>
