<svg width="29" height="34" viewBox="0 0 29 34" fill="none" xmlns="http://www.w3.org/2000/svg">
<path d="M7.66181 17.5199C7.66181 16.6383 7.04933 16.1117 5.96937 16.1117C5.52856 16.1117 5.23044 16.1546 5.07384 16.1964V19.0279C5.25944 19.0697 5.4868 19.0848 5.79884 19.0848C6.95073 19.0848 7.66181 18.5013 7.66181 17.5199Z" fill="black" fill-opacity="0.6"/>
<path d="M14.3505 16.1395C13.8668 16.1395 13.5536 16.1824 13.368 16.2254V22.4986C13.5536 22.5416 13.8517 22.5416 14.122 22.5416C16.0847 22.5555 17.3653 21.4744 17.3653 19.1845C17.3804 17.1928 16.2135 16.1395 14.3505 16.1395Z" fill="black" fill-opacity="0.6"/>
<path d="M27.1649 12.4542H26.3785V8.65981C26.3778 8.63571 26.3755 8.61168 26.3715 8.58789C26.3728 8.43529 26.3188 8.28738 26.2195 8.17145L19.9056 0.960878L19.901 0.956239C19.8208 0.869228 19.7186 0.805502 19.6052 0.771798L19.5704 0.760198C19.5222 0.748182 19.4727 0.741951 19.4231 0.741638H3.90573C3.19697 0.741638 2.62161 1.31816 2.62161 2.02576V12.4542H1.83512C0.821282 12.4542 0 13.2755 0 14.2893V23.8338C0 24.8465 0.822441 25.6689 1.83512 25.6689H2.62161V32.2032C2.62161 32.9108 3.19697 33.4874 3.90573 33.4874H25.0943C25.8019 33.4874 26.3785 32.9108 26.3785 32.2032V25.6689H27.1649C28.1788 25.6689 29.0001 24.8465 29.0001 23.8338V14.2893C29.0001 13.2755 28.1776 12.4542 27.1649 12.4542ZM3.90573 2.02576H18.7804V8.59601C18.7804 8.95098 19.0681 9.2375 19.4231 9.2375H25.0955V12.4542H3.90573V2.02576ZM19.6702 19.1126C19.6702 20.9477 19.002 22.2144 18.0752 22.9963C17.066 23.835 15.5301 24.234 13.6521 24.234C12.528 24.234 11.7323 24.1621 11.1905 24.0925V14.6744C11.9875 14.5468 13.0257 14.4761 14.1219 14.4761C15.9419 14.4761 17.1228 14.8032 18.0473 15.5003C19.0438 16.2393 19.6702 17.4202 19.6702 19.1126ZM2.92437 24.1354V14.6744C3.59253 14.5607 4.53213 14.4761 5.85453 14.4761C7.19202 14.4761 8.14554 14.7324 8.7847 15.244C9.39602 15.7277 9.80782 16.5246 9.80782 17.4631C9.80782 18.4027 9.49578 19.1984 8.92622 19.739C8.18614 20.4362 7.09109 20.7494 5.81045 20.7494C5.52625 20.7494 5.26989 20.7354 5.07153 20.7064V24.1354H2.92437ZM25.0943 31.8552H3.90573V25.6689H25.0943V31.8552ZM26.955 16.3251H23.2696V18.5164H26.7125V20.2807H23.2696V24.1354H21.0946V14.5468H26.955V16.3251Z" fill="black" fill-opacity="0.6"/>
</svg>
