<svg width="28" height="33" viewBox="0 0 28 33" fill="none" xmlns="http://www.w3.org/2000/svg">
<path d="M26.7273 8.25H21.3182V7.59C21.3182 3.399 18.0409 0 14 0C9.95909 0 6.68182 3.399 6.68182 7.59V8.25H1.27273C0.56875 8.25 0 8.83988 0 9.57V31.68C0 32.4101 0.56875 33 1.27273 33H26.7273C27.4312 33 28 32.4101 28 31.68V9.57C28 8.83988 27.4312 8.25 26.7273 8.25ZM18.4545 8.25H9.54545V7.59C9.54545 5.03662 11.5381 2.97 14 2.97C16.4619 2.97 18.4545 5.03662 18.4545 7.59V8.25Z" fill="black" fill-opacity="0.6"/>
</svg>
