<svg width="34" height="32" viewBox="0 0 34 32" fill="none" xmlns="http://www.w3.org/2000/svg">
<path d="M24.5556 28.3732C24.5442 28.8455 24.6334 29.3152 24.8181 29.7546C25.0027 30.1941 25.279 30.5945 25.6307 30.9324C25.9825 31.2702 26.4025 31.5387 26.8663 31.722C27.3301 31.9054 27.8282 31.9999 28.3314 32C28.8346 32.0001 29.3328 31.9058 29.7967 31.7227C30.2605 31.5396 30.6808 31.2713 31.0327 30.9337C31.3846 30.596 31.6611 30.1957 31.846 29.7563C32.0308 29.3169 32.1203 28.8473 32.1092 28.3749C32.0874 27.4483 31.68 26.5664 30.9743 25.9182C30.2686 25.27 29.3206 24.9069 28.3333 24.9067C27.346 24.9065 26.3978 25.2691 25.6918 25.917C24.9857 26.5649 24.5779 27.4465 24.5556 28.3732ZM5.66667 28.3732C5.66667 29.3138 6.06468 30.2159 6.77315 30.881C7.48162 31.5462 8.44252 31.9198 9.44444 31.9198C10.4464 31.9198 11.4073 31.5462 12.1157 30.881C12.8242 30.2159 13.2222 29.3138 13.2222 28.3732C13.2222 27.4325 12.8242 26.5304 12.1157 25.8653C11.4073 25.2002 10.4464 24.8265 9.44444 24.8265C8.44252 24.8265 7.48162 25.2002 6.77315 25.8653C6.06468 26.5304 5.66667 27.4325 5.66667 28.3732ZM12.3666 19.8116L33.2728 14.2043C33.4772 14.1403 33.6561 14.0196 33.786 13.8581C33.9158 13.6967 33.9904 13.502 34 13.2999V3.54665H7.55556V0.709329C7.55556 0.319198 7.21367 0 6.80189 0H0.753667C0.553762 0.000935465 0.362357 0.0760248 0.221178 0.208898C0.0799994 0.341771 0.000496038 0.521653 0 0.709329L0 3.54665H3.77778L7.38556 19.4303L7.55556 21.1025V24.0268C7.55556 24.4151 7.89556 24.7361 8.31111 24.7361H33.2444C33.66 24.7361 34 24.4133 34 24.0268V21.2799H12.7538C10.5816 21.2799 10.5362 20.3028 12.3666 19.8116Z" fill="black" fill-opacity="0.6"/>
</svg>
