<svg width="34" height="33" viewBox="0 0 34 33" fill="none" xmlns="http://www.w3.org/2000/svg">
<path fill-rule="evenodd" clip-rule="evenodd" d="M28.2435 8.2732H24.2212V6.09713H27.5051C28.3455 6.09713 29.0231 5.38346 29.0231 4.50684V1.59029C29.0231 0.709544 28.3455 0 27.5051 0H18.5399C17.6995 0 17.0243 0.711607 17.0243 1.59029V4.50684C17.0243 5.38552 17.6995 6.09713 18.5399 6.09713H21.887V8.2732H5.68367C4.78497 8.2732 4.05629 8.89199 4.05629 9.65104L0 27.4536V33H34V27.4536L29.8733 9.65104C29.872 9.28488 29.6996 8.93412 29.394 8.67578C29.0885 8.41745 28.6747 8.27266 28.2435 8.2732ZM9.72296 24.7825H7.21875V22.6229H9.72296V24.7825ZM7.21632 20.6572V18.4977H9.72053V20.6572H7.21632ZM14.5808 24.8134H12.0766V22.6229H14.5808V24.8134ZM14.5808 20.6242H12.0377V18.5286H14.5808V20.6242ZM19.4386 24.8093H16.8956V22.6209H19.4386V24.8093ZM16.8956 20.6242V18.4977H19.4386V20.6242H16.8956ZM19.4386 16.499H7.21875V12.3737H19.4386V16.499ZM26.6865 16.499H21.785V14.3951H26.6865V16.499Z" fill="black" fill-opacity="0.6"/>
</svg>
