<svg width="33" height="28" viewBox="0 0 33 28" fill="none" xmlns="http://www.w3.org/2000/svg">
<path d="M9.39217 9.1875L10.8423 0H3.3L0.1485 7.875C0.0513333 8.155 0 8.4455 0 8.75C0 10.682 2.10833 12.25 4.7135 12.25C7.11517 12.25 9.10067 10.913 9.39217 9.1875ZM16.5 12.25C19.1033 12.25 21.2135 10.682 21.2135 8.75C21.2135 8.67825 21.208 8.6065 21.2043 8.53825L20.2712 0H12.7288L11.7938 8.53125C11.7902 8.603 11.7865 8.67475 11.7865 8.75C11.7865 10.682 13.8967 12.25 16.5 12.25ZM25.6667 14.0805V21H7.33333V14.091C6.53033 14.3675 5.64667 14.525 4.7135 14.525C4.356 14.525 4.0095 14.4848 3.66667 14.4393V25.55C3.66667 26.8975 4.81983 28 6.22967 28H26.7667C28.1783 28 29.3333 26.8958 29.3333 25.55V14.441C28.9868 14.4918 28.6371 14.5204 28.2865 14.5267C27.3926 14.5259 26.5057 14.3748 25.6667 14.0805ZM32.8533 7.875L29.6982 0H22.1577L23.606 9.1735C23.8883 10.906 25.8738 12.25 28.2865 12.25C30.8898 12.25 33 10.682 33 8.75C33 8.4455 32.9487 8.155 32.8533 7.875Z" fill="black" fill-opacity="0.6"/>
</svg>
