<svg width="28" height="28" viewBox="0 0 28 28" fill="none" xmlns="http://www.w3.org/2000/svg">
<path d="M28 16.4706H24.4094C24.1294 17.6235 23.6847 18.6941 23.0753 19.6494L25.6118 22.1859L22.1529 25.6447L19.6165 23.1082C18.6612 23.7012 17.5906 24.1459 16.4706 24.4094V28H11.5294V24.4094C10.4094 24.1459 9.33882 23.7012 8.38353 23.1082L5.84706 25.6447L2.35529 22.1529L4.89176 19.6165C4.29882 18.6612 3.85412 17.5906 3.59059 16.4706H0V11.5788H3.57412C3.83765 10.4259 4.29882 9.35529 4.89176 8.38353L2.35529 5.84706L5.81412 2.38824L8.35059 4.92471C9.30588 4.31529 10.3929 3.87059 11.5294 3.59059V0H16.4706V3.59059C17.5906 3.85412 18.6612 4.29882 19.6165 4.89176L22.1529 2.35529L25.6447 5.84706L23.1082 8.38353C23.7012 9.35529 24.1624 10.4259 24.4259 11.5788H28V16.4706ZM14 18.9412C16.7341 18.9412 18.9412 16.7341 18.9412 14C18.9412 11.2659 16.7341 9.05882 14 9.05882C11.2659 9.05882 9.05882 11.2659 9.05882 14C9.05882 16.7341 11.2659 18.9412 14 18.9412Z" fill="black" fill-opacity="0.6"/>
</svg>
