<svg width="29" height="24" viewBox="0 0 29 24" fill="none" xmlns="http://www.w3.org/2000/svg">
<path d="M22.8375 16.4996H6.18062C5.98125 16.4996 5.81812 16.6684 5.81812 16.8747L5.81359 19.1248C5.81359 19.331 5.97672 19.4998 6.17609 19.4998H22.8375C23.0369 19.4998 23.2 19.331 23.2 19.1248V16.8747C23.2 16.6684 23.0369 16.4996 22.8375 16.4996ZM22.8375 20.9999H6.16703C5.96766 20.9999 5.80453 21.1686 5.80453 21.3749L5.8 23.625C5.8 23.8312 5.96313 24 6.1625 24H22.8375C23.0369 24 23.2 23.8312 23.2 23.625V21.3749C23.2 21.1686 23.0369 20.9999 22.8375 20.9999ZM22.8375 11.9994H6.18969C5.99031 11.9994 5.82719 12.1682 5.82719 12.3744L5.82266 14.6245C5.82266 14.8308 5.98578 14.9996 6.18516 14.9996H22.8375C23.0369 14.9996 23.2 14.8308 23.2 14.6245V12.3744C23.2 12.1682 23.0369 11.9994 22.8375 11.9994ZM27.6633 5.48347L15.3337 0.172277C15.0687 0.0585428 14.7846 0 14.4977 0C14.2108 0 13.9267 0.0585428 13.6617 0.172277L1.33672 5.48347C0.530156 5.83505 0 6.65072 0 7.56014V23.625C0 23.8312 0.163125 24 0.3625 24H3.9875C4.18688 24 4.35 23.8312 4.35 23.625V11.9994C4.35 11.1744 5.01156 10.4993 5.82719 10.4993H23.1728C23.9884 10.4993 24.65 11.1744 24.65 11.9994V23.625C24.65 23.8312 24.8131 24 25.0125 24H28.6375C28.8369 24 29 23.8312 29 23.625V7.56014C29 6.65072 28.4698 5.83505 27.6633 5.48347Z" fill="black" fill-opacity="0.6"/>
</svg>
